<!DOCTYPE svg PUBLIC "-//W3C//DTD SVG 20010904//EN" "http://www.w3.org/TR/2001/REC-SVG-20010904/DTD/svg10.dtd">
<svg version="1.0" xmlns="http://www.w3.org/2000/svg" width="1000px" height="1000px" viewBox="0 0 10000 10000" preserveAspectRatio="xMidYMid meet">
<g id="layer101" fill="#000000" stroke="none">
 <path d="M3246 9083 c-4 -5 -170 -11 -369 -14 -382 -7 -461 -15 -523 -51 -114 -65 -180 -137 -247 -268 -26 -51 -48 -252 -45 -413 l3 -138 75 60 75 60 1148 1 1147 0 0 78 c0 69 3 81 23 100 23 22 25 22 473 22 l451 0 21 -23 c19 -20 22 -35 22 -100 l0 -77 1148 0 1147 -1 75 -60 75 -60 3 133 c5 238 -21 381 -88 483 -11 17 -23 38 -26 48 -4 9 -10 17 -15 17 -5 0 -9 6 -9 14 0 7 -12 22 -26 32 -14 10 -31 24 -38 30 -6 6 -33 23 -61 39 -27 16 -52 32 -55 36 -14 19 -186 33 -500 41 -452 11 -3874 21 -3884 11z"/>
 <path d="M4400 8019 c-61 -37 -90 -91 -90 -165 0 -60 24 -109 76 -154 l29 -25 560 0 c616 0 599 -2 648 62 61 81 58 158 -9 233 -66 73 -40 70 -641 70 -532 0 -538 0 -573 -21z"/>
 <path d="M2941 7883 c-25 -5 -61 -34 -126 -103 -43 -45 -66 -74 -188 -231 -157 -204 -443 -867 -484 -1124 -32 -197 -40 -255 -35 -260 11 -11 32 -4 59 19 76 64 326 170 447 191 50 9 129 22 176 30 133 24 395 21 578 -4 84 -12 164 -26 178 -31 60 -23 60 -25 53 142 -5 148 -66 562 -119 808 -23 109 -67 234 -99 285 -48 74 -51 80 -58 95 -26 59 -102 145 -138 156 -11 4 -23 12 -27 18 -7 11 -172 18 -217 9z"/>
 <path d="M6835 7867 c-65 -35 -89 -62 -163 -185 -114 -189 -129 -242 -211 -747 -38 -236 -51 -342 -53 -443 -3 -144 -3 -145 56 -122 14 5 94 19 178 31 183 25 445 28 578 4 47 -8 126 -21 176 -30 121 -21 371 -127 447 -191 38 -32 57 -31 57 4 0 22 -30 227 -44 297 -9 47 -129 380 -176 490 -65 153 -223 467 -258 514 -15 20 -45 59 -67 87 -22 28 -53 68 -70 90 -102 132 -186 210 -234 218 -79 13 -175 5 -216 -17z"/>
 <path d="M5546 7322 c-6 -11 -63 -385 -90 -602 -66 -517 -109 -1322 -87 -1615 27 -352 44 -512 77 -709 76 -457 205 -922 335 -1207 85 -187 102 -215 198 -324 20 -22 47 -55 60 -73 13 -18 48 -48 77 -67 29 -20 56 -40 59 -45 4 -6 10 -8 14 -5 5 2 0 30 -11 60 -57 170 -78 456 -41 555 17 45 91 192 153 305 72 131 80 149 80 180 0 18 -9 44 -20 58 -11 14 -20 28 -20 32 0 4 -13 24 -30 45 -16 21 -30 41 -30 46 0 4 -6 15 -14 23 -27 29 -83 155 -99 221 -42 167 -49 371 -18 480 11 36 24 83 31 105 6 22 41 100 77 173 73 148 73 136 1 212 -38 41 -83 106 -104 150 -4 8 -11 18 -16 21 -5 3 -19 50 -33 105 -34 137 -36 390 -4 528 25 106 85 308 103 349 14 30 9 75 -17 162 -87 293 -118 396 -149 505 -16 58 -34 123 -39 145 -6 22 -14 47 -18 55 -5 9 -12 34 -15 57 -9 49 -30 83 -44 68 -5 -5 -17 -32 -27 -60 -10 -27 -21 -54 -25 -60 -4 -5 -17 -39 -30 -75 -37 -103 -54 -114 -86 -55 -10 19 -22 35 -26 35 -5 0 -8 5 -8 11 0 6 -29 55 -65 109 -61 91 -88 119 -99 102z"/>
 <path d="M4124 7273 c-3 -16 -15 -59 -25 -98 -11 -38 -27 -95 -35 -125 -9 -30 -19 -66 -24 -80 -5 -14 -18 -59 -30 -100 -11 -41 -30 -104 -42 -140 -11 -36 -26 -87 -33 -115 -7 -27 -24 -88 -38 -135 -39 -135 -39 -134 3 -260 21 -63 45 -149 55 -190 9 -41 22 -86 28 -100 6 -14 13 -104 15 -210 3 -172 2 -192 -22 -283 -32 -126 -74 -200 -183 -319 l-42 -46 68 -139 c38 -76 81 -181 96 -233 25 -85 28 -110 27 -245 0 -246 -38 -366 -182 -580 -39 -57 -70 -113 -70 -124 0 -20 19 -58 125 -251 118 -217 135 -269 135 -424 0 -118 -40 -340 -71 -398 -17 -32 1 -41 30 -16 14 14 40 33 56 43 29 18 40 29 130 137 107 127 136 176 209 353 85 205 113 283 157 445 134 483 222 1040 235 1480 9 293 -22 967 -61 1320 -50 459 -105 833 -125 854 -14 14 -26 0 -121 -150 -51 -79 -97 -143 -102 -141 -6 2 -37 69 -71 150 -33 81 -66 147 -73 147 -7 0 -15 -12 -19 -27z"/>
 <path d="M3625 6063 c-38 -20 -79 -40 -90 -45 -24 -10 -186 -25 -430 -38 -99 -6 -189 -14 -200 -19 -11 -5 -41 -12 -66 -14 -29 -3 -88 -25 -155 -57 -98 -48 -118 -62 -204 -149 -174 -177 -266 -323 -316 -501 -32 -114 -40 -170 -48 -359 l-7 -143 28 5 c15 3 57 10 93 16 36 6 85 16 110 21 25 6 97 19 160 31 153 27 450 101 580 145 326 110 500 254 611 504 33 75 33 75 36 265 4 203 -6 367 -22 371 -5 2 -41 -13 -80 -33z"/>
 <path d="M6285 5977 c-4 -68 -5 -195 -3 -283 4 -153 6 -162 37 -234 110 -250 285 -394 611 -504 130 -44 427 -118 580 -145 63 -12 135 -25 160 -31 25 -5 74 -15 110 -21 36 -6 78 -13 93 -16 l28 -5 -7 138 c-3 77 -10 166 -14 199 -11 92 -56 242 -98 325 -57 116 -176 266 -303 386 -66 62 -249 155 -318 161 -25 2 -55 9 -66 14 -11 5 -101 13 -200 19 -244 13 -406 28 -430 38 -11 5 -53 25 -92 45 -40 21 -75 37 -77 37 -2 0 -7 -55 -11 -123z"/>
 <path d="M3572 4770 c-40 -21 -87 -42 -104 -46 -18 -3 -39 -10 -48 -14 -30 -16 -146 -49 -195 -56 -27 -3 -54 -9 -60 -13 -14 -9 -236 -48 -415 -74 -47 -7 -89 -15 -95 -18 -5 -4 -36 -10 -67 -13 -32 -4 -58 -12 -58 -17 0 -5 -11 -9 -23 -9 -13 0 -33 -8 -45 -17 -11 -10 -40 -30 -65 -45 -96 -57 -189 -243 -231 -463 -9 -44 -23 -114 -31 -155 -11 -58 -36 -430 -35 -532 0 -28 17 -22 118 38 51 31 119 67 150 81 31 14 84 38 117 53 33 15 89 40 125 55 36 14 79 33 97 41 17 8 34 14 38 14 19 0 378 185 431 222 225 158 335 271 409 417 41 81 50 110 61 195 14 105 18 349 6 378 -6 14 -16 12 -80 -22z"/>
 <path d="M6356 4793 c-11 -27 -6 -277 8 -379 11 -85 20 -114 61 -195 74 -146 184 -259 409 -417 53 -37 412 -222 431 -222 4 0 21 -6 38 -14 18 -8 61 -27 97 -41 36 -15 92 -40 125 -55 33 -15 86 -39 117 -53 31 -14 99 -50 150 -81 52 -31 100 -56 107 -56 11 0 13 19 8 98 -4 53 -9 160 -12 237 -4 77 -12 169 -20 205 -8 36 -21 103 -30 150 -22 120 -50 204 -94 291 -67 133 -100 168 -226 236 -52 28 -61 31 -111 38 -27 4 -56 9 -64 13 -8 3 -53 12 -100 19 -202 30 -401 66 -415 74 -5 4 -32 10 -60 13 -46 7 -152 37 -200 56 -11 5 -31 12 -45 15 -25 6 -91 36 -100 45 -3 3 -19 12 -37 22 -28 14 -32 14 -37 1z"/>
 <path d="M3546 3455 c-16 -9 -55 -31 -86 -50 -32 -19 -63 -35 -69 -35 -6 0 -11 -4 -11 -10 0 -5 -5 -10 -11 -10 -6 0 -25 -6 -42 -14 -18 -8 -54 -24 -82 -36 -27 -12 -59 -25 -70 -30 -11 -4 -81 -27 -155 -51 -74 -23 -139 -45 -145 -49 -5 -4 -25 -11 -43 -15 -18 -4 -45 -13 -60 -21 -15 -8 -35 -14 -44 -14 -10 0 -18 -4 -18 -10 0 -5 -8 -10 -17 -10 -19 0 -91 -34 -184 -88 -31 -18 -81 -59 -111 -90 -68 -73 -191 -266 -206 -324 -6 -24 -25 -95 -43 -158 -17 -63 -35 -153 -40 -200 -22 -194 -22 -200 -9 -200 7 0 45 20 84 44 93 58 317 165 431 205 50 18 135 48 190 68 55 20 196 83 314 140 l214 103 88 91 c122 126 152 190 168 356 14 152 13 336 -2 385 l-12 38 -29 -15z"/>
 <path d="M6421 3433 c-14 -50 -14 -235 0 -386 16 -166 46 -230 168 -356 l88 -91 214 -103 c118 -57 259 -120 314 -140 55 -20 141 -50 190 -68 114 -40 338 -147 431 -205 94 -58 98 -58 90 14 -3 31 -10 93 -15 137 -8 71 -40 202 -86 361 -20 69 -127 234 -205 316 -36 39 -90 83 -122 101 -32 17 -58 35 -58 39 0 5 -5 8 -11 8 -10 0 -90 33 -121 50 -10 6 -23 10 -30 10 -7 0 -25 6 -40 14 -15 8 -42 17 -60 21 -18 4 -37 11 -43 15 -5 4 -71 26 -145 50 -74 23 -151 49 -170 57 -19 8 -44 18 -55 23 -60 24 -188 89 -245 123 -36 22 -68 41 -72 43 -4 3 -12 -12 -17 -33z"/>
 <path d="M4922 2895 c-7 -8 -28 -15 -46 -15 -32 0 -125 -43 -167 -78 -108 -88 -180 -236 -190 -392 l-4 -45 123 -3 122 -3 0 42 c0 98 59 194 149 241 97 51 236 33 322 -40 75 -64 102 -145 97 -291 -2 -89 -7 -115 -29 -161 -29 -60 -76 -120 -96 -120 -7 0 -13 -3 -13 -8 0 -15 -99 -42 -156 -42 l-59 0 0 -114 0 -114 65 -5 c114 -10 179 -51 222 -142 25 -53 28 -71 28 -158 0 -87 -3 -104 -26 -145 -29 -53 -82 -112 -100 -112 -6 0 -17 -7 -24 -15 -9 -11 -33 -15 -90 -15 -72 0 -80 2 -130 38 -61 42 -89 83 -105 156 l-11 51 -111 3 -110 3 4 -28 c24 -162 65 -262 135 -330 52 -50 148 -103 186 -103 16 0 37 -7 48 -15 26 -20 172 -20 198 0 11 8 31 15 45 15 40 0 129 50 180 101 109 108 157 291 129 485 -18 118 -51 196 -106 248 -43 41 -73 59 -116 70 -40 10 -28 26 45 63 149 75 219 216 219 443 0 151 -36 269 -109 358 -41 50 -153 132 -180 132 -10 0 -24 7 -31 15 -8 9 -30 15 -60 15 -30 0 -52 6 -60 15 -17 21 -169 21 -188 0z"/>
 <path d="M3440 2451 c-8 -4 -44 -11 -79 -15 -35 -3 -69 -10 -75 -15 -6 -4 -24 -11 -41 -15 -16 -4 -32 -11 -35 -14 -3 -4 -27 -18 -55 -31 -27 -14 -52 -27 -55 -30 -3 -3 -30 -23 -61 -43 -83 -54 -235 -203 -284 -278 -54 -84 -66 -107 -105 -213 -31 -87 -32 -91 -28 -225 5 -173 23 -235 92 -327 72 -98 135 -133 252 -144 49 -4 91 -7 93 -5 2 2 -13 22 -33 45 -44 52 -60 106 -53 179 12 129 50 181 177 241 58 27 208 59 349 75 167 18 280 114 342 290 18 49 20 75 17 159 -3 70 -10 110 -23 134 -43 84 -213 211 -300 225 -22 3 -49 8 -60 11 -11 3 -27 1 -35 -4z"/>
 <path d="M6465 2444 c-33 -8 -62 -18 -65 -22 -3 -4 -27 -18 -54 -32 -58 -30 -146 -112 -171 -160 -13 -25 -20 -65 -23 -140 -3 -89 -1 -114 17 -164 31 -90 80 -164 137 -209 63 -49 121 -72 205 -81 141 -16 291 -48 349 -75 135 -64 175 -125 175 -266 0 -63 -4 -76 -33 -122 -18 -28 -40 -54 -49 -57 -38 -15 8 -23 91 -15 118 11 180 46 252 144 68 91 86 154 92 320 4 139 -3 176 -62 309 -56 127 -174 270 -311 376 -25 19 -51 40 -58 45 -21 16 -50 34 -77 47 -14 7 -27 15 -30 18 -10 11 -98 50 -112 50 -8 0 -18 4 -24 10 -5 5 -41 13 -79 19 -39 5 -79 11 -90 14 -11 3 -47 -1 -80 -9z"/>
 </g>

</svg>